<mxfile host="app.diagrams.net" modified="2021-04-09T04:54:05.763Z" agent="5.0 (Windows NT 10.0; Win64; x64) AppleWebKit/537.36 (KHTML, like Gecko) Chrome/89.0.4389.114 Safari/537.36" etag="TUGxHR7I7jrOZrT3XcRj" version="14.5.8" type="github">
  <diagram id="VL1XxLUKZ5aJoRsiPDJt" name="第 1 页">
    <mxGraphModel dx="1278" dy="492" grid="1" gridSize="10" guides="1" tooltips="1" connect="1" arrows="1" fold="1" page="1" pageScale="1" pageWidth="827" pageHeight="1169" math="0" shadow="0">
      <root>
        <mxCell id="0" />
        <mxCell id="1" parent="0" />
        <mxCell id="CHwhzflPlLLmDskBdQJG-5" style="rounded=0;orthogonalLoop=1;jettySize=auto;html=1;entryX=0;entryY=0.5;entryDx=0;entryDy=0;" parent="1" source="CHwhzflPlLLmDskBdQJG-3" target="CHwhzflPlLLmDskBdQJG-4" edge="1">
          <mxGeometry relative="1" as="geometry" />
        </mxCell>
        <mxCell id="CHwhzflPlLLmDskBdQJG-3" value="管理员" style="shape=umlActor;verticalLabelPosition=bottom;verticalAlign=top;html=1;" parent="1" vertex="1">
          <mxGeometry x="150" y="270" width="50" height="80" as="geometry" />
        </mxCell>
        <mxCell id="CHwhzflPlLLmDskBdQJG-7" style="edgeStyle=none;rounded=0;orthogonalLoop=1;jettySize=auto;html=1;entryX=0.014;entryY=0.623;entryDx=0;entryDy=0;entryPerimeter=0;" parent="1" source="CHwhzflPlLLmDskBdQJG-4" target="CHwhzflPlLLmDskBdQJG-6" edge="1">
          <mxGeometry relative="1" as="geometry" />
        </mxCell>
        <mxCell id="CHwhzflPlLLmDskBdQJG-12" value="" style="edgeStyle=none;rounded=0;orthogonalLoop=1;jettySize=auto;html=1;" parent="1" source="CHwhzflPlLLmDskBdQJG-4" target="CHwhzflPlLLmDskBdQJG-11" edge="1">
          <mxGeometry relative="1" as="geometry" />
        </mxCell>
        <mxCell id="CHwhzflPlLLmDskBdQJG-4" value="用户管理" style="ellipse;whiteSpace=wrap;html=1;" parent="1" vertex="1">
          <mxGeometry x="270" y="280" width="114" height="60" as="geometry" />
        </mxCell>
        <mxCell id="CHwhzflPlLLmDskBdQJG-13" style="edgeStyle=none;rounded=0;orthogonalLoop=1;jettySize=auto;html=1;entryX=0;entryY=0.5;entryDx=0;entryDy=0;" parent="1" source="CHwhzflPlLLmDskBdQJG-6" target="CHwhzflPlLLmDskBdQJG-8" edge="1">
          <mxGeometry relative="1" as="geometry" />
        </mxCell>
        <mxCell id="CHwhzflPlLLmDskBdQJG-14" style="edgeStyle=none;rounded=0;orthogonalLoop=1;jettySize=auto;html=1;entryX=0;entryY=0.5;entryDx=0;entryDy=0;" parent="1" source="CHwhzflPlLLmDskBdQJG-6" target="CHwhzflPlLLmDskBdQJG-9" edge="1">
          <mxGeometry relative="1" as="geometry" />
        </mxCell>
        <mxCell id="CHwhzflPlLLmDskBdQJG-6" value="封禁账号" style="ellipse;whiteSpace=wrap;html=1;" parent="1" vertex="1">
          <mxGeometry x="414" y="220" width="114" height="60" as="geometry" />
        </mxCell>
        <mxCell id="CHwhzflPlLLmDskBdQJG-8" value="永久封禁" style="ellipse;whiteSpace=wrap;html=1;" parent="1" vertex="1">
          <mxGeometry x="580" y="160" width="114" height="60" as="geometry" />
        </mxCell>
        <mxCell id="CHwhzflPlLLmDskBdQJG-9" value="阶段性封禁" style="ellipse;whiteSpace=wrap;html=1;" parent="1" vertex="1">
          <mxGeometry x="580" y="230" width="114" height="60" as="geometry" />
        </mxCell>
        <mxCell id="CHwhzflPlLLmDskBdQJG-11" value="解除账号封禁" style="ellipse;whiteSpace=wrap;html=1;" parent="1" vertex="1">
          <mxGeometry x="414" y="330" width="114" height="60" as="geometry" />
        </mxCell>
        <mxCell id="CHwhzflPlLLmDskBdQJG-15" value="&lt;font style=&quot;font-size: 24px&quot;&gt;用户管理&lt;/font&gt;" style="text;html=1;strokeColor=none;fillColor=none;align=center;verticalAlign=middle;whiteSpace=wrap;rounded=0;" parent="1" vertex="1">
          <mxGeometry x="340" y="90" width="160" height="40" as="geometry" />
        </mxCell>
      </root>
    </mxGraphModel>
  </diagram>
</mxfile>
